# xmcd CD database file
#
# Track frame offsets:
#	150
#	5611
#	35849
#	68136
#	104348
#	137680
#	171848
#	210750
#	246133
#
# Disc length: 3816 seconds
#
# Revision: 0
# Processed by: cddbd v1.5.1PL0 Copyright (c) Steve Scherf et al.
# Submitted via: CDex 1.51
#
DISCID=760ee609
DTITLE=Shere Khan - Age :CD2: Destination
DYEAR=2000
DGENRE=Drum and Base
TTITLE0=Intro
TTITLE1=Midnight
TTITLE2=NYC
TTITLE3=Destination
TTITLE4=Alpine mountains
TTITLE5=Flame
TTITLE6=Elevate
TTITLE7=Always
TTITLE8=Inevitable peace
EXTD=YEAR: 2000
EXTT0=
EXTT1=
EXTT2=
EXTT3=
EXTT4=
EXTT5=
EXTT6=
EXTT7=
EXTT8=
PLAYORDER=
